<?xml version="1.0" encoding="iso-8859-1"?>
<!-- Generator: Adobe Illustrator 19.0.0, SVG Export Plug-In . SVG Version: 6.00 Build 0)  -->
<svg version="1.1" id="Layer_1" xmlns="http://www.w3.org/2000/svg" xmlns:xlink="http://www.w3.org/1999/xlink" x="0px" y="0px"
	 viewBox="0 0 512.001 512.001" style="enable-background:new 0 0 512.001 512.001;" xml:space="preserve">
<path style="fill:#D1D3D3;" d="M491.613,324.707c0-122.8-99.551-222.353-222.353-222.353S46.908,201.907,46.908,324.707H491.613z"/>
<path style="fill:#B3874F;" d="M206.139,345.75c1.233,1.817,0.781,4.342-1.007,5.616l-4.197,2.988
	c-1.786,1.271-4.322,0.874-5.632-0.886L8.69,103.372c-1.31-1.76-0.922-4.24,0.863-5.509l15.764-11.225
	c1.786-1.272,4.255-0.83,5.489,0.984L206.139,345.75z"/>
<path style="fill:#997443;" d="M50.989,147.19c-5.087-5.62-11.429-8.793-17.503-10.593l3.215,4.309
	c4.307,1.769,8.538,4.391,12.069,8.292c4.52,4.989,7.423,11.542,8.712,19.56l3.557,4.77C60.221,162.52,56.865,153.685,50.989,147.19
	z M183.154,337.19l2.91,3.9c5.618,1.888,12.162,5.413,16.189,12.326l2.459-1.75C200.527,344.674,193.32,339.829,183.154,337.19z
	 M57.665,127.161l-3.741-5.504c-13.163-7.378-28.237-16.42-38.273-28.137l-2.45,1.745c11.587,13.641,29.558,23.625,43.987,31.636
	C57.347,126.987,57.503,127.076,57.665,127.161z M104.538,208.996c3.648,4.714,9.144,8.502,16.412,11.336l-3.171-4.664
	c-5.315-2.663-9.305-5.983-11.905-9.947c-2.762-4.213-3.763-8.815-3.879-13.292l-2.878-4.235c-0.496,6.173,0.18,12.961,4.255,19.17
	C103.738,207.921,104.126,208.461,104.538,208.996z M62.526,146.647c-9.645-16.076-27.855-21.972-39.902-25.88
	c-0.427-0.136-0.843-0.272-1.256-0.406l3.102,4.156c11.498,3.794,27.114,9.723,35.493,23.671
	c6.611,11.009,8.34,22.465,10.011,33.542c0.243,1.603,0.485,3.191,0.736,4.763l4.013,5.378c-0.706-3.403-1.245-6.957-1.792-10.585
	C71.297,170.449,69.443,158.167,62.526,146.647z M193.191,326.69c-12.716-6.01-28.559-18.454-29.375-43.246l-2.811-4.137
	c-0.178,12.212,2.881,24.508,10.693,34.611c5.605,7.249,13.659,13.361,24.706,17.503L193.191,326.69z M141.483,262.324
	c-5.125-17.39-19.292-21.743-31.591-23.324l2.526,3.386c10.857,1.797,21.933,6.325,26.197,20.784
	c1.735,5.892,3.318,12.184,4.849,18.268c0.325,1.288,0.648,2.578,0.973,3.856l4.735,6.344c-0.965-3.608-1.89-7.278-2.808-10.929
	C144.825,274.597,143.238,268.273,141.483,262.324z M131.441,235.778l-2.898-4.265c-0.663-0.233-1.333-0.459-2.008-0.69
	c-6.462-2.202-13.784-4.697-21.087-11.145c-12.641-11.159-15.32-31.262-16.108-45.88l-3.199-4.711
	c0.465,13.358,1.902,33.943,12.553,47.719c1.42,1.834,3.005,3.554,4.774,5.114c7.753,6.842,15.376,9.442,22.102,11.733
	C127.631,234.354,129.587,235.026,131.441,235.778z"/>
<path style="fill:#B3874F;" d="M233.115,323.75c0.86,2.02-0.071,4.411-2.071,5.315l-4.694,2.123
	c-1.997,0.906-4.409,0.025-5.355-1.954L86.069,47.867c-0.947-1.98-0.088-4.34,1.908-5.238l17.631-7.98
	c1.999-0.904,4.336,0.005,5.198,2.024L233.115,323.75z"/>
<path style="fill:#997443;" d="M119.131,99.013c-3.909-6.495-9.521-10.829-15.134-13.764l2.325,4.846
	c3.886,2.566,7.531,5.956,10.244,10.462c3.474,5.769,5.059,12.756,4.779,20.873l2.572,5.366
	C125.237,115.837,123.646,106.519,119.131,99.013z M212.21,310.921l2.104,4.387c5.15,2.937,10.891,7.655,13.51,15.214l2.75-1.243
	C227.815,321.612,221.677,315.469,212.21,310.921z M129.541,80.648l-2.611-6.123c-11.494-9.777-24.544-21.552-32.134-34.984
	l-2.74,1.238c8.741,15.618,24.453,28.88,37.068,39.518C129.264,80.416,129.4,80.532,129.541,80.648z M159.767,169.981
	c2.672,5.329,7.335,10.104,13.921,14.288l-2.212-5.189c-4.702-3.637-7.978-7.663-9.765-12.053
	c-1.899-4.665-1.995-9.376-1.245-13.791l-2.009-4.712c-1.677,5.963-2.318,12.754,0.482,19.632
	C159.19,168.77,159.467,169.375,159.767,169.981z M130.558,100.705C124.191,83.072,107.46,73.778,96.39,67.62
	c-0.391-0.217-0.774-0.429-1.154-0.642l2.244,4.679c10.55,5.938,24.732,14.763,30.266,30.066c4.366,12.077,3.855,23.65,3.361,34.844
	c-0.071,1.62-0.139,3.224-0.194,4.813l2.902,6.05c-0.037-3.476,0.119-7.067,0.281-10.734
	C134.578,125.75,135.124,113.34,130.558,100.705z M224.083,302.551c-11.319-8.348-24.469-23.612-20.491-48.096l-1.962-4.602
	c-2.527,11.95-1.896,24.606,3.824,36.023c4.103,8.194,10.828,15.744,20.871,21.937L224.083,302.551z M185.745,229.429
	c-1.678-18.053-14.741-25.055-26.506-28.974l1.827,3.807c10.308,3.856,20.302,10.433,21.699,25.443
	c0.57,6.116,0.911,12.595,1.24,18.861c0.07,1.327,0.139,2.652,0.211,3.97l3.424,7.139c-0.252-3.727-0.453-7.506-0.649-11.267
	C186.659,242.115,186.32,235.602,185.745,229.429z M181.007,201.445l-2.022-4.744c-0.607-0.355-1.221-0.708-1.838-1.065
	c-5.917-3.405-12.621-7.262-18.545-14.997c-10.254-13.385-9.009-33.629-6.966-48.123l-2.232-5.24
	c-2.118,13.199-4.675,33.674,3.121,49.243c1.042,2.075,2.265,4.066,3.7,5.939c6.289,8.208,13.269,12.228,19.427,15.773
	C177.542,199.314,179.332,200.35,181.007,201.445z"/>
<path style="fill:#E94F3D;" d="M504.09,275.523c0,111.665-90.523,202.187-202.187,202.187h-65.285
	c-111.665,0-202.187-90.523-202.187-202.187L504.09,275.523L504.09,275.523z"/>
<path style="fill:#5A3C3D;" d="M67.764,386.749c36.169,54.797,98.283,90.961,168.853,90.961h65.285
	c70.57,0,132.684-36.164,168.853-90.961H67.764z"/>
<path d="M328.14,157.524h18.775c4.369,0,7.911-3.541,7.911-7.911s-3.542-7.911-7.911-7.911H328.14c-4.369,0-7.911,3.541-7.911,7.911
	S323.771,157.524,328.14,157.524z M408.238,244.528c1.544,1.544,3.57,2.316,5.594,2.316s4.049-0.772,5.594-2.316
	c3.09-3.091,3.09-8.099,0-11.189l-13.276-13.276c-3.09-3.089-8.099-3.089-11.187,0c-3.09,3.091-3.09,8.099,0,11.189L408.238,244.528
	z M314.236,245.114c2.024,0,4.049-0.772,5.594-2.316l13.276-13.275c3.09-3.09,3.09-8.099,0-11.187
	c-3.09-3.091-8.099-3.09-11.189-0.001l-13.276,13.275c-3.09,3.09-3.09,8.099,0,11.187
	C310.186,244.341,312.21,245.114,314.236,245.114z M504.089,267.611h-11.725c-12.193-47.69-39.844-90.82-78.369-121.997
	c-40.777-32.997-92.178-51.171-144.735-51.171c-39.626,0-78.39,10.158-112.697,29.442l-38.482-90.322
	c-1.259-2.948-3.596-5.211-6.578-6.372c-2.983-1.159-6.233-1.074-9.158,0.248l-17.619,7.976c-2.921,1.316-5.135,3.697-6.235,6.702
	c-1.101,3.01-0.945,6.265,0.444,9.17l45.341,94.55c-9.642,7.826-18.639,16.44-26.901,25.705L37.348,83.169
	c-1.805-2.652-4.534-4.422-7.685-4.987c-3.15-0.561-6.326,0.151-8.933,2.009L4.968,91.414c-2.61,1.856-4.322,4.619-4.821,7.779
	c-0.499,3.166,0.281,6.326,2.202,8.909l71.147,95.35c-12.389,19.95-21.561,41.483-27.342,64.159H34.431
	c-4.369,0-7.911,3.541-7.911,7.911c0,115.848,94.25,210.099,210.099,210.099h65.285c115.848,0,210.098-94.251,210.098-210.099
	C512,271.153,508.458,267.611,504.089,267.611z M269.26,110.266c48.945,0,96.812,16.921,134.781,47.647
	c34.828,28.185,60.114,66.848,71.953,109.697H217.797l-54.993-129.078C195.117,120.023,231.773,110.266,269.26,110.266z
	 M94.976,48.144l10.159-4.598l95.463,224.066h-0.38L94.976,48.144z M131.333,160.555l51.337,107.057h-20.043l-56.078-82.558
	C114.128,176.235,122.433,168.042,131.333,160.555z M17.483,101.927l9.084-6.468l116.934,172.153h-2.389L17.483,101.927z
	 M83.725,217.161l17.785,23.836l-7.268,7.268c-3.09,3.09-3.09,8.099,0,11.187c1.544,1.545,3.57,2.317,5.594,2.317
	s4.049-0.772,5.594-2.316l5.642-5.642l10.297,13.8H62.516C67.379,249.938,74.489,233.043,83.725,217.161z M301.903,469.799h-65.284
	c-104.476,0-189.955-82.892-194.117-186.365H496.02C491.857,386.906,406.379,469.799,301.903,469.799z M262.789,195.154
	c1.544,1.544,3.57,2.316,5.594,2.316s4.049-0.772,5.594-2.316c3.09-3.091,3.09-8.099,0-11.189L260.7,170.689
	c-3.09-3.089-8.099-3.089-11.189,0c-3.09,3.091-3.09,8.099,0,11.189L262.789,195.154z M197.505,137.38l-13.276,13.276
	c-3.09,3.091-3.09,8.099,0,11.189c1.544,1.544,3.57,2.316,5.594,2.316c2.024,0,4.049-0.772,5.594-2.316l13.276-13.276
	c3.09-3.091,3.09-8.099,0-11.189C205.603,134.293,200.593,134.293,197.505,137.38z"/>
<g>
</g>
<g>
</g>
<g>
</g>
<g>
</g>
<g>
</g>
<g>
</g>
<g>
</g>
<g>
</g>
<g>
</g>
<g>
</g>
<g>
</g>
<g>
</g>
<g>
</g>
<g>
</g>
<g>
</g>
</svg>
